<?xml version="1.0" standalone="no"?>
<!DOCTYPE svg PUBLIC "-//W3C//DTD SVG 20010904//EN"
 "http://www.w3.org/TR/2001/REC-SVG-20010904/DTD/svg10.dtd">
<svg version="1.0" xmlns="http://www.w3.org/2000/svg"
 width="16px" height="16px" viewBox="0 0 512.000000 512.000000"
 preserveAspectRatio="xMidYMid meet">

<g transform="translate(0.000000,512.000000) scale(0.100000,-0.100000)"
fill="#c2cfd7" stroke="none">
<path d="M2325 5109 c-488 -47 -946 -230 -1345 -537 -126 -97 -363 -340 -461
-472 -120 -162 -170 -244 -254 -415 -88 -179 -132 -296 -180 -476 -203 -774
-35 -1583 463 -2229 84 -109 323 -348 432 -432 274 -211 581 -367 895 -453
792 -217 1607 -54 2265 453 109 84 348 323 432 432 498 646 666 1455 463 2229
-48 180 -92 297 -180 476 -131 267 -269 460 -485 676 -210 211 -389 343 -635
470 -438 226 -932 323 -1410 278z m539 -505 c362 -54 712 -207 994 -436 63
-52 71 -62 62 -79 -19 -35 -203 -220 -285 -286 -181 -146 -418 -288 -635 -381
-168 -72 -149 -73 -194 11 -143 263 -492 811 -683 1071 -24 33 -40 63 -36 67
9 8 230 46 308 53 88 7 367 -5 469 -20z m-1046 -369 c252 -367 636 -985 620
-1000 -9 -9 -349 -86 -524 -119 -380 -70 -717 -109 -1116 -128 -142 -7 -260
-10 -262 -7 -7 7 36 164 74 273 168 473 524 888 962 1120 97 52 104 54 119 38
9 -9 66 -89 127 -177z m2395 -432 c241 -315 386 -708 413 -1121 6 -84 5 -102
-7 -102 -8 0 -61 9 -119 19 -334 61 -830 88 -1125 61 -60 -5 -127 -11 -147
-12 l-38 -3 -86 190 c-47 105 -88 196 -91 203 -3 8 17 22 58 39 214 90 529
276 724 428 99 78 278 248 325 309 19 25 38 45 42 46 4 0 27 -26 51 -57z
m-1512 -1057 c43 -90 79 -169 79 -174 0 -6 -17 -16 -37 -22 -278 -88 -571
-234 -808 -404 -311 -223 -630 -550 -840 -862 -37 -54 -71 -100 -75 -102 -4
-2 -39 37 -77 85 -283 358 -429 750 -450 1209 l-6 141 229 7 c440 12 893 63
1314 147 156 31 539 124 548 134 3 3 14 5 24 5 15 0 37 -37 99 -164z m1429
-421 c134 -17 318 -52 414 -80 l58 -17 -6 -46 c-10 -77 -54 -238 -92 -340
-146 -390 -394 -714 -747 -975 -40 -31 -41 -30 -52 38 -14 86 -98 458 -136
600 -53 198 -148 509 -204 668 -25 70 -45 132 -45 136 0 8 125 26 245 35 99 8
442 -4 565 -19z m-1165 -207 c108 -291 213 -634 289 -938 67 -274 118 -522
108 -531 -27 -25 -302 -107 -454 -135 -113 -22 -459 -30 -585 -15 -346 43
-693 177 -965 374 -38 27 -68 51 -68 53 0 3 25 46 56 96 92 152 201 285 364
448 252 253 477 414 805 576 122 60 381 171 406 173 3 1 23 -45 44 -101z"/>
</g>
</svg>
