<?xml version="1.0" standalone="no"?>
<!DOCTYPE svg PUBLIC "-//W3C//DTD SVG 20010904//EN"
 "http://www.w3.org/TR/2001/REC-SVG-20010904/DTD/svg10.dtd">
<svg version="1.0" xmlns="http://www.w3.org/2000/svg"
 width="16px" height="16px" viewBox="0 0 512.000000 512.000000"
 preserveAspectRatio="xMidYMid meet">

<g transform="translate(0.000000,512.000000) scale(0.100000,-0.100000)"
fill="#c2cfd7" stroke="none">
<path d="M1735 5114 c-515 -42 -820 -174 -1089 -474 -142 -158 -237 -339 -288
-550 -21 -86 -17 -407 5 -490 82 -299 258 -520 537 -673 163 -89 339 -129 570
-128 86 0 162 -4 170 -9 11 -7 9 -24 -13 -97 -49 -158 -31 -277 69 -460 24
-44 44 -90 44 -102 0 -33 -38 -48 -135 -56 -359 -27 -762 -124 -1000 -243 -96
-47 -218 -129 -292 -196 -194 -177 -328 -492 -310 -730 28 -369 268 -634 719
-791 482 -168 1118 -148 1589 51 308 130 577 376 709 648 127 262 143 559 43
826 -74 198 -214 362 -533 628 -180 150 -209 177 -249 228 -50 66 -71 122 -71
189 0 135 43 202 290 445 203 200 230 234 295 373 72 151 96 269 96 466 -1
315 -109 589 -313 794 -43 43 -78 82 -78 87 0 21 54 30 175 30 158 0 209 16
385 118 216 127 263 117 -575 118 -390 0 -728 -1 -750 -2z m-52 -244 c238 -74
426 -302 546 -665 183 -553 93 -1051 -214 -1180 -107 -44 -282 -58 -390 -30
-218 57 -388 208 -533 476 -184 341 -236 761 -128 1038 85 215 232 345 434
381 68 13 212 2 285 -20z m332 -3003 c75 -41 329 -234 416 -315 74 -69 156
-176 197 -258 39 -76 63 -191 63 -299 -1 -338 -206 -567 -598 -666 -437 -110
-1001 0 -1286 251 -206 182 -288 480 -202 735 86 258 293 419 658 514 209 54
336 70 547 68 149 -2 157 -3 205 -30z"/>
<path d="M4003 5105 c-56 -24 -58 -31 -63 -381 -5 -304 -6 -323 -25 -344 -42
-47 -65 -50 -380 -50 -330 0 -345 -3 -371 -65 -19 -46 -19 -214 0 -260 25 -59
30 -60 383 -65 l323 -5 32 -33 33 -32 5 -323 c5 -353 6 -358 65 -383 46 -19
214 -19 260 0 59 25 60 30 65 383 l5 323 33 32 32 33 323 5 c353 5 358 6 383
65 19 46 19 214 0 260 -26 63 -40 65 -373 65 -432 0 -403 -29 -403 403 0 333
-2 347 -65 373 -45 19 -218 18 -262 -1z"/>
</g>
</svg>
