<?xml version="1.0" standalone="no"?>
<!DOCTYPE svg PUBLIC "-//W3C//DTD SVG 20010904//EN"
 "http://www.w3.org/TR/2001/REC-SVG-20010904/DTD/svg10.dtd">
<svg version="1.0" xmlns="http://www.w3.org/2000/svg"
 width="16px" height="16px" viewBox="0 0 512.000000 512.000000"
 preserveAspectRatio="xMidYMid meet">

<g transform="translate(0.000000,512.000000) scale(0.100000,-0.100000)"
fill="#ff5672" stroke="none">
<path d="M1055 4146 c-41 -18 -83 -69 -90 -109 -3 -18 -5 -298 -3 -624 3 -580
3 -592 24 -619 11 -15 33 -37 48 -48 27 -21 37 -21 646 -21 609 0 619 0 646
21 15 11 37 33 48 48 21 27 21 37 21 646 0 609 0 619 -21 646 -11 15 -33 37
-48 48 -27 21 -39 21 -634 23 -489 2 -613 0 -637 -11z"/>
<path d="M2815 4146 c-41 -18 -83 -69 -90 -109 -3 -18 -5 -298 -3 -624 3 -580
3 -592 24 -619 11 -15 33 -37 48 -48 27 -21 37 -21 646 -21 609 0 619 0 646
21 15 11 37 33 48 48 21 27 21 37 21 646 0 609 0 619 -21 646 -11 15 -33 37
-48 48 -27 21 -39 21 -634 23 -489 2 -613 0 -637 -11z"/>
<path d="M1055 2386 c-41 -18 -83 -69 -90 -109 -3 -18 -5 -298 -3 -624 3 -580
3 -592 24 -619 11 -15 33 -37 48 -48 27 -21 37 -21 646 -21 609 0 619 0 646
21 15 11 37 33 48 48 21 27 21 37 21 646 0 609 0 619 -21 646 -11 15 -33 37
-48 48 -27 21 -39 21 -634 23 -489 2 -613 0 -637 -11z"/>
<path d="M2815 2386 c-41 -18 -83 -69 -90 -109 -3 -18 -5 -298 -3 -624 3 -580
3 -592 24 -619 11 -15 33 -37 48 -48 27 -21 37 -21 646 -21 609 0 619 0 646
21 15 11 37 33 48 48 21 27 21 37 21 646 0 609 0 619 -21 646 -11 15 -33 37
-48 48 -27 21 -39 21 -634 23 -489 2 -613 0 -637 -11z"/>
</g>
</svg>
