<?xml version="1.0" standalone="no"?>
<!DOCTYPE svg PUBLIC "-//W3C//DTD SVG 20010904//EN"
 "http://www.w3.org/TR/2001/REC-SVG-20010904/DTD/svg10.dtd">
<svg version="1.0" xmlns="http://www.w3.org/2000/svg"
 width="16px" height="16px" viewBox="0 0 512.000000 512.000000"
 preserveAspectRatio="xMidYMid meet">
<metadata>
Created by potrace 1.16, written by Peter Selinger 2001-2019
</metadata>
<g transform="translate(0.000000,512.000000) scale(0.100000,-0.100000)"
fill="#c2cfd7" stroke="none">
<path d="M3187 4215 c-346 -66 -615 -340 -676 -689 -13 -71 -14 -223 -2 -285
l9 -43 -72 6 c-304 29 -555 98 -821 225 -256 123 -448 262 -668 482 -87 88
-160 159 -162 159 -10 0 -54 -100 -81 -180 -26 -78 -28 -98 -28 -240 -1 -136
2 -164 22 -230 47 -148 125 -274 239 -387 l74 -73 -34 0 c-50 0 -174 34 -250
69 l-67 30 0 -37 c0 -58 19 -161 42 -232 47 -147 122 -264 234 -369 92 -86
169 -133 288 -176 l89 -32 -49 -6 c-120 -15 -183 -18 -244 -9 -36 5 -66 8 -68
7 -8 -7 62 -154 102 -214 50 -74 146 -173 221 -227 108 -77 290 -144 392 -144
23 0 43 -5 43 -10 0 -16 -175 -127 -277 -176 -129 -62 -309 -120 -449 -145
-92 -16 -161 -20 -309 -20 l-189 -1 49 -30 c237 -148 551 -266 850 -319 117
-21 159 -24 415 -23 263 0 296 2 430 27 481 87 866 282 1207 611 322 309 567
743 673 1191 47 198 73 413 69 573 l-2 82 97 82 c54 44 130 118 169 163 79 90
163 205 150 205 -4 0 -53 -16 -108 -36 -100 -36 -283 -84 -319 -84 -13 0 -6 9
25 32 105 76 215 217 265 339 37 91 34 94 -48 49 -95 -51 -250 -112 -365 -143
l-91 -25 -24 25 c-77 83 -260 185 -388 217 -94 24 -268 29 -363 11z"/>
</g>
</svg>
