<?xml version="1.0" standalone="no"?>
<!DOCTYPE svg PUBLIC "-//W3C//DTD SVG 20010904//EN"
 "http://www.w3.org/TR/2001/REC-SVG-20010904/DTD/svg10.dtd">
<svg version="1.0" xmlns="http://www.w3.org/2000/svg"
 width="16px" height="16px" viewBox="0 0 512.000000 512.000000"
 preserveAspectRatio="xMidYMid meet">

<g transform="translate(0.000000,512.000000) scale(0.100000,-0.100000)"
fill="#c2cfd7" stroke="none">
<path d="M1130 5114 c0 -3 45 -134 99 -292 128 -373 193 -578 231 -732 l30
-124 0 -378 0 -378 140 0 140 0 0 383 0 382 165 545 c91 300 169 557 175 573
l9 27 -147 0 -147 0 -95 -370 c-52 -203 -98 -366 -101 -362 -3 4 -47 162 -98
352 -51 190 -95 353 -97 363 -5 15 -21 17 -155 17 -82 0 -149 -3 -149 -6z"/>
<path d="M2425 4641 c-113 -18 -224 -109 -264 -216 -35 -92 -41 -169 -41 -512
0 -357 8 -441 52 -531 30 -61 100 -131 163 -162 44 -22 63 -25 165 -25 105 0
120 2 171 28 105 51 176 154 199 287 8 44 10 193 8 445 -4 333 -6 387 -22 435
-37 113 -117 200 -214 234 -52 19 -155 26 -217 17z m121 -236 c25 -10 40 -26
54 -57 18 -40 20 -68 20 -428 0 -380 0 -386 -22 -430 -27 -53 -59 -72 -111
-66 -47 5 -65 20 -88 71 -17 36 -19 74 -19 425 0 360 2 388 20 428 13 29 30
47 52 57 42 18 51 18 94 0z"/>
<path d="M3090 4083 c0 -302 5 -599 10 -661 14 -179 56 -231 185 -231 80 -1
143 29 228 109 l67 62 0 -76 0 -76 130 0 130 0 0 710 0 710 -130 0 -130 0 0
-547 0 -546 -53 -53 c-64 -64 -116 -80 -150 -45 -22 21 -22 23 -25 606 l-4
585 -129 0 -129 0 0 -547z"/>
<path d="M1950 2944 c-400 -10 -906 -40 -1018 -60 -146 -27 -297 -144 -366
-284 -67 -137 -99 -368 -116 -837 -8 -200 -8 -374 0 -582 16 -448 50 -699 112
-831 61 -128 221 -254 356 -280 68 -13 353 -37 617 -52 299 -17 1751 -17 2050
0 264 15 549 39 617 52 138 26 285 144 352 280 67 137 99 366 116 837 8 200 8
374 0 582 -19 539 -59 768 -157 903 -70 97 -197 183 -304 207 -60 14 -360 39
-614 51 -204 10 -1392 20 -1645 14z m-300 -624 l0 -130 -150 0 -150 0 0 -815
0 -815 -145 0 -145 0 0 815 0 815 -150 0 -150 0 0 130 0 130 445 0 445 0 0
-130z m1250 -176 l0 -307 55 52 c142 135 319 131 390 -8 43 -85 46 -144 43
-661 -3 -478 -4 -486 -26 -542 -67 -166 -247 -183 -404 -39 l-58 53 0 -66 0
-66 -125 0 -125 0 0 945 0 945 125 0 125 0 0 -306z m1241 -191 c63 -27 137
-97 168 -158 37 -74 51 -180 51 -385 l0 -190 -255 0 -255 0 0 -151 c0 -82 5
-170 11 -194 22 -86 93 -124 166 -89 51 25 66 61 71 172 l4 92 131 0 130 0 -5
-119 c-5 -106 -8 -126 -36 -185 -39 -83 -104 -148 -180 -177 -72 -29 -231 -32
-300 -6 -99 38 -174 114 -213 218 -31 80 -42 266 -36 574 4 154 11 303 17 330
25 120 97 217 197 266 91 44 237 45 334 2z m-2201 -530 c0 -302 3 -565 7 -586
13 -84 85 -84 170 -2 l53 51 0 542 0 542 125 0 125 0 0 -705 0 -705 -125 0
-125 0 0 76 0 76 -60 -55 c-91 -82 -151 -111 -230 -112 -107 0 -151 35 -176
141 -11 47 -14 186 -14 672 l0 612 125 0 125 0 0 -547z"/>
<path d="M2988 1750 c-15 -4 -41 -18 -58 -30 l-30 -22 2 -436 3 -436 34 -23
c73 -49 136 -40 175 27 20 34 21 50 21 435 0 356 -2 403 -17 431 -9 17 -23 36
-31 42 -20 17 -67 23 -99 12z"/>
<path d="M3945 1752 c-72 -25 -88 -60 -93 -204 l-4 -119 128 3 129 3 -2 108
c-3 117 -17 166 -55 191 -29 19 -76 27 -103 18z"/>
</g>
</svg>
